<svg xmlns="http://www.w3.org/2000/svg" width="174.656" height="38.577" viewBox="0 0 174.656 38.577"><defs><style>.a{fill:#17abda;}.a,.b{fill-rule:evenodd;}.b{fill:#0070ad;}</style></defs><g transform="translate(-0.001 0)"><path class="a" d="M167.832,23.087a6.817,6.817,0,0,0,6.823-6.755c-.266-1.6-.83-4.56-5.024-4.56-4.585,0-6.1,6.347-9.84,10.437a5.984,5.984,0,0,1-5.3,4.761c.681.7,2.194,1.084,4,1.084,3.3,0,7.308-.986,9.4-3.033a4.41,4.41,0,0,1-4.77-4.208,5.775,5.775,0,0,0,4.707,2.273"/><path class="b" d="M72.082,11.641c1.17,0,1.842,1.065,1.725,2.6-.137,1.8-1.458,3.856-3.755,5.476-1.2-3.383-.31-8.074,2.03-8.074M56.441,36.063c-1.2,0-1.836-1.129-1.836-2.409,0-3.446,2.553-5.276,5.7-6.846-.143,7.534-1.911,9.255-3.865,9.255M138.422,12.99c0-2.016-.121-3.363-1.453-3.363a3.832,3.832,0,0,0-1.434.294c.47,6.815-1.085,12.816-2.982,12.816-2.487,0-1.245-14.606-6.518-14.606-4.859,0-5.558,11.659-6.11,11.659-.377,0-.432-3.062-.415-5.395a16.671,16.671,0,0,0,.314-2.887c0-1.085-.445-2.964-2.932-2.025.087,8.336-1.6,13.377-3.5,13.377-2.783,0-2.814-7.559-2.814-9.644,0-2.035.148-4.754-2.9-3.785-.457,7.274-2.379,12.762-3.591,12.762-1.811,0-1.448-12.563-5.36-12.563-3.514,0-4.6,11.9-5.335,11.9-1.311,0,.409-13.4-4.668-13.4-2.663,0-3.721,4.474-4.765,9.479-.2.972-.415,1-.45-.094-.027-.9-.034-1.894-.024-2.8,1.283-5.032-.283-6.891-2.636-5.55C81.606,18.448,77.3,22.987,74,22.987a3.66,3.66,0,0,1-2.834-1.3c3.959-2.4,5.72-5.165,5.72-7.86,0-2.924-1.694-4.607-4.509-4.607-3.928,0-6.125,4.007-6.125,7.411a11.4,11.4,0,0,0,.915,4.672c-1.351.638-2.624,1.188-3.807,1.725-.1-3.5-.5-7.184-.807-10.576-2.088-.569-2.7.426-2.86,2.271-.372,4.2-1.945,6.815-3.335,6.815-1.048,0-1.686-1.261-1.762-2.6-.388-6.74,5.136-8.616,8.027-7.64.6-1.484-.059-2.557-2.667-2.557-3.161,0-5.525,1.9-7.257,4.343a19.933,19.933,0,0,1-4.269,4.18,10.863,10.863,0,0,0,.069-1.2c0-4.756-2.6-6.842-5.083-6.842-2.054,0-3.347,1.223-4.094,3.093-.186-1.875-.563-2.686-1.665-2.686a4.412,4.412,0,0,0-1.831.469,22.129,22.129,0,0,1,.448,4.9c0,5.717-1.655,8.279-3.244,8.279-1.82,0-2.109-6.779-2.261-9.418a2.5,2.5,0,0,0-.891-.163c-1.645,0-1.858,2.188-2.264,4.2-.45,2.227-1.748,5.033-3.669,5.033-1.158,0-1.882-1.109-1.974-3.1-.188-4.042,3.206-8.831,8.519-7.343.7-1.609-.4-2.835-2.6-2.835-3.883,0-7.094,2.88-8.493,6.287-1.422,3.121-3.909,7.708-8.97,7.708-3.574,0-6.309-3.084-6.309-9.563,0-5.585,3.555-10.889,7.346-10.889,2.655,0,3.268,2.584,3.035,5.009,1.372,1.094,3.627.079,3.627-2.652,0-1.881-1.542-5.071-6.521-5.071C5.445.481,0,6.566,0,14.565c0,7.745,3.97,12.321,9.586,12.321,3.545,0,6.888-2,9.2-5.7.579,3.236,2.8,4.6,4.472,4.6,2.7,0,4.464-1.73,5.427-4.074.6,2.349,1.87,4.083,3.975,4.083a4.25,4.25,0,0,0,3.513-1.938c-.343,8.161-.782,13.363,4.086,12.338-.75-2.318-.992-6.543-.992-10.334,0-10.378,1.728-13.794,3.9-13.794,1.567,0,2.076,1.983,2.076,4.1a15.6,15.6,0,0,1-.4,3.608c-2.665,1.662-4.79,2.974-4.79,4.643,0,1.318.987,1.442,1.842,1.442,2.046,0,4.505-1.987,5.865-5.736a18.522,18.522,0,0,0,3.521-2.64,11.208,11.208,0,0,0-.06,1.153c0,3.723,1.645,5.97,4.269,5.97,2.056,0,3.6-1.444,4.689-3.609.07,1.247.113,2.4.129,3.453-4.17,1.91-8.788,3.852-8.788,9.242A4.7,4.7,0,0,0,56.2,38.577c5.812,0,7.139-6.077,7.193-13.135,1.891-.814,3.3-1.44,4.929-2.236a6.575,6.575,0,0,0,5.015,2.587c3.279,0,5.743-1.72,7.721-5.213.35,2.658,1.047,5.213,2.473,5.213,2.6,0,3.126-13.466,5.061-13.466,1.481,0,.264,14.571,4.174,14.571,3.349,0,3.977-12.822,5.606-12.822,1.156,0,1.244,11.719,4.888,11.719,1.795,0,3.741-2.133,4.714-6.606.456,2.976,1.973,6.606,4.936,6.606,1.73,0,3.217-1.732,4.362-4.034.317,2.37,1,4.034,2.3,4.034,3.407,0,3.293-13.438,5.99-13.438,2.1,0,1.451,13.438,6.459,13.438,2.384,0,3.512-2.011,4.183-4.534.922,3.712,2.411,4.534,3.635,4.534a2.581,2.581,0,0,0,2.129-1.178c-3.872-1.664-3.546-7.719-3.546-11.627"/><path class="b" d="M109.178,6.549a2.023,2.023,0,0,0,1.9-2.115,1.838,1.838,0,0,0-1.883-1.977,2.132,2.132,0,0,0-2.031,2.115,1.943,1.943,0,0,0,2.014,1.977"/><path class="b" d="M136.926,7.122a1.99,1.99,0,0,0,1.848-2.015,1.806,1.806,0,0,0-1.831-1.883,1.993,1.993,0,0,0-1.851,2.015,1.809,1.809,0,0,0,1.834,1.883"/><path class="b" d="M174.649,16.064a14.77,14.77,0,0,0-5.282-10.721A28.494,28.494,0,0,0,161.141.293c-.238-.1-.48-.2-.723-.291,0,0,0,0,0,0-3.672,4.36-16.392,7.614-16.392,16.75A9.021,9.021,0,0,0,149.648,25a8.487,8.487,0,0,0,5.82.119,10.1,10.1,0,0,0,4.323-2.913c3.736-4.09,5.256-10.436,9.84-10.436,4.193,0,4.759,2.96,5.026,4.559,0,0,0-.115-.008-.269"/></g></svg>