<svg xmlns="http://www.w3.org/2000/svg" width="40" height="40" viewBox="0 0 40 40"><g fill="#fff" stroke="#12abdb" stroke-width="1"><circle cx="20" cy="20" r="20" stroke="none"/><circle cx="20" cy="20" r="19.5" fill="none"/></g><g transform="translate(29.607 33.82) rotate(-169)"><g transform="translate(0 0)"><path d="M2.5,5.882c-.317-.227-.68-.223-.9-.594A52.742,52.742,0,0,1,.115.032H.09L0,0C.583,2.612,1.439,6.141,1.982,6.475,2.569,6.824,3.119,6.339,2.5,5.882Z" transform="translate(20.214 8.876)" fill="none" stroke="#12abdb" stroke-width="0.75"/><path d="M2.781,3.072c-.36-.147-.719-.054-1.022-.36A25.667,25.667,0,0,1,.155,0a1.133,1.133,0,0,1-.13.032H0c.978,1.856,1.986,3.6,2.414,3.72C3.065,3.972,3.486,3.353,2.781,3.072Z" transform="translate(20.987 8.598)" fill="none" stroke="#12abdb" stroke-width="0.75"/><path d="M6.05,6.8c-1.108-.45-2.187-.18-3.119-1.115C1.4,4.152.5-.068.053,0S1.978,7.782,4.842,8.868l.09.032h.025l.1.032.1.025a2.266,2.266,0,0,0,1,.032h0l.126-.036C7.367,8.631,7.63,7.444,6.05,6.8Z" transform="translate(14.296 0)" fill="none" stroke="#12abdb" stroke-width="0.75"/><path d="M11.755.73C5.905-1.407,1.168,1.525.149,4.651A5.432,5.432,0,0,0,.131,7.1,2.513,2.513,0,0,1,4.247,5.428c.669.518,1.3,1.079,1.928,1.658,1.2-.119,2.4-.245,3.576-.457A3.519,3.519,0,0,0,11.755.73Z" transform="translate(2.225 3.469)" fill="none" stroke="#12abdb" stroke-width="0.75"/><path d="M16.929,2.615a5.6,5.6,0,0,0-.288-.568V2.022A5.281,5.281,0,0,0,14.709.291a.489.489,0,0,1-.076-.036c-.223-.094-.442-.18-.658-.255a3.507,3.507,0,0,1-2.011,5.9c-1.18.212-2.378.338-3.576.457l-1.205.122A9.97,9.97,0,0,0,3.27,7.508,6.065,6.065,0,0,0,0,12.724,6.025,6.025,0,0,0,3.27,18.48c1.885,1.079,3.551.921,5.547.284C17.076,14.936,18.9,6.972,16.929,2.615Z" transform="translate(0 4.199)" fill="none" stroke="#12abdb" stroke-width="0.75"/></g></g></svg>